<svg id="SvgjsSvg1038" width="288" height="288" xmlns="http://www.w3.org/2000/svg" version="1.1" xmlns:xlink="http://www.w3.org/1999/xlink" xmlns:svgjs="http://svgjs.com/svgjs"><defs id="SvgjsDefs1039"></defs><g id="SvgjsG1040"><svg xmlns="http://www.w3.org/2000/svg" viewBox="0 0 32 32" width="288" height="288"><path d="M6.55 7.12c0 3.64 2.97 6.61 6.62 6.61s6.62-2.97 6.62-6.61c0-3.65-2.97-6.62-6.62-6.62S6.55 3.47 6.55 7.12zM1.67 26v2c0 1.93 1.57 3.5 3.5 3.5h16c1.93 0 3.5-1.57 3.5-3.5v-2c0-6.34-5.16-11.5-11.5-11.5S1.67 19.66 1.67 26zm25.543-10.651v-1.617h1.616a1.5 1.5 0 0 0 0-3h-1.616V9.116a1.5 1.5 0 0 0-3 0v1.616h-1.615a1.5 1.5 0 0 0 0 3h1.615v1.617a1.5 1.5 0 0 0 3 0z" fill="#ffffff" class="color000 svgShape"></path></svg></g></svg>