<svg id="SvgjsSvg1011" width="288" height="288"
    xmlns="http://www.w3.org/2000/svg" version="1.1"
    xmlns:xlink="http://www.w3.org/1999/xlink"
    xmlns:svgjs="http://svgjs.com/svgjs">
    <defs id="SvgjsDefs1012"></defs>
    <g id="SvgjsG1013">
        <svg xmlns="http://www.w3.org/2000/svg" fill="none" viewBox="0 0 24 24" width="288" height="288">
            <path fill="#2563eb" fill-rule="evenodd" d="M12 22c5.523 0 10-4.477 10-10S17.523 2 12 2 2 6.477 2 12s4.477 10 10 10Zm3-12a3 3 0 1 1-6 0 3 3 0 0 1 6 0Zm-9 7a7.489 7.489 0 0 1 6-3 7.489 7.489 0 0 1 6 3 7.489 7.489 0 0 1-6 3 7.489 7.489 0 0 1-6-3Z" clip-rule="evenodd" class="color000 svgShape"></path>
        </svg>
    </g>
</svg>