<svg xmlns="http://www.w3.org/2000/svg" xmlns:xlink="http://www.w3.org/1999/xlink" viewBox="0,0,256,256" width="50px" height="50px"><g fill="#ecb101" fill-rule="nonzero" stroke="none" stroke-width="1" stroke-linecap="butt" stroke-linejoin="miter" stroke-miterlimit="10" stroke-dasharray="" stroke-dashoffset="0" font-family="none" font-weight="none" font-size="none" text-anchor="none" style="mix-blend-mode: normal"><g transform="scale(5.12,5.12)"><path d="M23.66992,1.90625c-0.79011,0.01412 -1.58974,0.07395 -2.39648,0.18945c-1.186,0.258 -2.33147,0.67489 -3.35547,1.21289c-1.29,0.586 -2.62408,1.19134 -3.83008,1.27734c-0.061,0.004 -0.12069,0.0143 -0.17969,0.0293c-1.686,0.435 -3.14017,1.47625 -4.07617,2.90625l-0.15039,0.21875c-0.031,0.046 -0.05998,0.09453 -0.08398,0.14453c-0.825,1.726 -1.04461,3.70272 -0.59961,5.63672c0.286,0.935 0.62703,1.83313 0.95703,2.70313l0.10156,0.26367c0.771,1.809 1.33101,3.70944 1.66601,5.64844c0.017,0.098 0.0478,0.19325 0.0918,0.28125c0.329,0.652 0.58644,1.33817 0.77344,2.07617c0.053,0.184 0.11001,0.3745 0.16601,0.5625c1.062,-0.934 2.33919,-1.64202 3.74219,-2.16602c-0.872,-2.258 -1.41848,-4.86222 -1.89649,-7.19922c-0.606,-2.971 -1.12405,-5.50473 -2.12305,-6.30273c-0.119,-0.161 -0.19947,-0.34692 -0.23047,-0.54492c-0.035,-0.378 0.04361,-0.7578 0.22461,-1.0918c0.172,-0.372 0.43653,-0.69555 0.76953,-0.93555c0.21,-0.145 0.45308,-0.23648 0.70508,-0.27148v0.04883c-0.251,0.035 -0.49122,0.12648 -0.69922,0.27148c-0.221,0.276 -0.41784,0.56991 -0.58984,0.87891c-0.491,0.983 0.54559,0.9357 0.93359,1.4707c1.01,0.814 1.09308,3.48284 1.70508,6.46484c0.474,2.315 0.75302,4.89476 1.41602,7.13477c0.771,-0.275 1.57334,-0.49702 2.40234,-0.66602c-1.095,-2.527 -1.3597,-5.45964 -1.5957,-8.18164c-0.262,-2.916 -0.49698,-5.59333 -1.70898,-7.23633c-0.206,-0.23 -0.31106,-0.53184 -0.28906,-0.83984c0.024,-0.143 0.10366,-0.27147 0.22266,-0.35547c0.134,-0.094 0.29012,-0.15106 0.45312,-0.16406c0.522,-0.042 1.04175,0.1013 1.46875,0.4043l-0.01953,0.02344c0.007,0.005 0.01253,0.00767 0.01953,0.01367h-0.0332l0.01172,-0.01367c-0.301,-0.242 -0.69727,-0.33033 -1.07227,-0.23633c-0.15,0.016 -0.29492,0.06834 -0.41992,0.15234c-0.111,0.073 -0.18603,0.19027 -0.20703,0.32227c0,0.197 -0.153,0.2297 0,0.5957c1.223,1.638 2.18406,4.40713 2.41406,7.32813c0.24,2.713 0.0815,5.63634 0.9375,8.15234c0.93,-0.181 1.88175,-0.30219 2.84375,-0.36719c-1.102,-3.659 -1.80555,-7.42905 -2.06055,-11.24805c-0.123,-1.564 0.00309,-3.13611 0.37109,-4.66211c0.355,-1.212 0.97736,-2.01134 1.94336,-2.15234c0.353,-0.046 0.71169,-0.01983 1.05469,0.07617v0.05078c-0.348,-0.064 -0.70583,-0.0528 -1.04883,0.0332c-0.808,0.186 -0.71023,0.68713 -1.24023,1.82813c-0.413,1.467 -0.54658,2.99863 -0.39258,4.51563c0.54,3.532 1.17825,8.05425 1.78125,11.53125c1.008,-0.052 2.01877,-0.04919 3.00977,0.00781c-0.789,-5.84 -1.46484,-12.63719 1.91016,-17.61719h0.04492c-1.48,3.948 -1.68242,11.46758 -1.85742,13.89258c-0.059,0.813 -0.00059,2.32742 0.06641,3.73242c1.42,0.089 2.79459,0.27897 4.05859,0.54297c-0.015,-2.49 0.14948,-4.97641 0.52148,-7.44141c0.538,-3.55 1.76152,-6.96197 3.60352,-10.04297v0.04883c-0.535,4.063 -2.57694,5.96342 -3.33594,9.98242c-0.227,2.37 -0.464,5.00119 -0.625,7.49219c0.737,0.159 1.43999,0.33897 2.08398,0.54297c0.573,0.182 1.17486,0.40783 1.75586,0.67383c0.384,-6.372 3.65409,-13.52997 5.49609,-13.91797c-1.54,4.743 -3.34255,9.38531 -5.18555,14.07031c0.489,0.242 0.94861,0.51817 1.34961,0.82617c0.816,-1.492 2.00506,-2.94256 3.16406,-4.35156c2.125,-2.583 4.32281,-5.25328 4.13281,-8.23828c-0.009,-0.136 -0.04447,-0.26962 -0.10547,-0.39062c-0.313,-0.616 -0.66366,-1.21567 -1.09766,-1.88867l-0.08398,-0.13477c-0.101,-0.158 -0.20264,-0.31389 -0.30664,-0.46289c-0.078,-0.112 -0.15733,-0.21827 -0.23633,-0.32227l-0.08594,-0.11328c-0.159,-0.212 -0.31747,-0.42305 -0.48047,-0.62305c-0.088,-0.106 -0.17502,-0.20689 -0.29102,-0.33789c-0.181,-0.208 -0.36092,-0.40861 -0.54492,-0.59961l-0.24219,-0.24609c-0.213,-0.211 -0.42672,-0.4117 -0.63672,-0.5957l-0.1543,-0.13281c-2.659,-2.268 -5.38973,-2.86452 -7.05273,-3.22852l-0.92773,-0.20898c-2.166,-0.4155 -4.45389,-0.77284 -6.82422,-0.73047zM24.41211,23.71094c-4.25322,-0.05908 -8.6543,0.88555 -10.95117,3.4668l0.94531,2.70898c0.094,0.27 0.30045,0.48575 0.56445,0.59375c0.265,0.111 0.56136,0.10156 0.81836,-0.02344c2.623,-1.274 8.76333,-4.25698 17.23633,1.04102c0.162,0.101 0.34625,0.15234 0.53125,0.15234c0.135,0 0.26948,-0.02603 0.39648,-0.08203c0.302,-0.131 0.52098,-0.40161 0.58398,-0.72461c0.205,-1.043 0.27794,-2.71708 0.21094,-4.08008l0.01953,-0.08789c-0.195,-0.429 -1.17366,-1.21816 -3.34766,-1.91016c-1.95713,-0.62175 -4.45588,-1.01924 -7.00781,-1.05469zM18.05859,32.38086l-0.45312,0.30469c0.192,0.322 0.44042,0.6068 0.73242,0.8418c0.23,0.144 0.49853,0.21417 0.76953,0.20117c0.139,-0.001 0.27616,-0.01959 0.41016,-0.05859l1.51172,-0.54687c0.103,-0.04 0.21227,-0.06055 0.32227,-0.06055c0.166,-0.011 0.3317,0.03395 0.4707,0.12695c0.191,0.156 0.35623,0.33892 0.49023,0.54492l0.42969,-0.24023v-0.01172c-0.186,-0.289 -0.4185,-0.54481 -0.6875,-0.75781c-0.216,-0.15 -0.47333,-0.22961 -0.73633,-0.22461c-0.088,-0.002 -0.17681,0.01483 -0.25781,0.04883l-1.63672,0.54688c-0.104,0.032 -0.21327,0.04597 -0.32227,0.04297c-0.194,0.014 -0.38787,-0.03934 -0.54687,-0.15234c-0.199,-0.173 -0.36609,-0.37747 -0.49609,-0.60547zM34.84961,33.4707c-0.156,0.014 -0.29944,0.09089 -0.39844,0.21289c-0.119,0.101 -0.19489,0.24244 -0.21289,0.39844c-0.011,0.034 -0.011,0.07147 0,0.10547c0.352,0.372 0.80183,0.63381 1.29883,0.75781c0.497,0.153 0.99447,0.3005 1.48047,0.4375c0.492,0.163 0.90969,0.49645 1.17969,0.93945c0.005,0.02 0.005,0.04055 0,0.06055c0,0.093 -0.2233,0.24489 -0.6543,0.46289c-0.218,0.126 -0.5458,0.40336 -1.0918,0.81836c-0.341,0.279 -0.7058,0.52628 -1.0918,0.73828c-0.328,0.146 -0.61594,0.3713 -0.83594,0.6543c-0.005,0.005 -0.00967,0.00962 -0.01367,0.01563c-0.174,0.2 -0.15312,0.50569 0.04688,0.67969c0.104,0.1 0.24367,0.15434 0.38867,0.15234c0.103,-0.002 0.20392,-0.02817 0.29492,-0.07617c0.704,-0.444 1.38039,-0.93198 2.02539,-1.45898c0.654,-0.542 1.33697,-1.05044 2.04297,-1.52344c0.393,-0.24 0.58398,-0.49105 0.58398,-0.74805c-0.013,-0.172 -0.10695,-0.32792 -0.25195,-0.41992c-0.84182,-0.75588 -1.83504,-1.31716 -2.91211,-1.6543l-0.79297,-0.34375c-0.267,-0.121 -0.5537,-0.19198 -0.8457,-0.20898c-0.08,-0.011 -0.16123,-0.011 -0.24023,0zM13.06641,33.52734c-0.698,0.524 -1.46148,0.95334 -2.27148,1.27734c-0.803,0.331 -1.56363,0.75658 -2.26563,1.26758c-0.341,0.305 -0.53988,0.73831 -0.54687,1.19531c0.04,0.173 0.16312,0.31681 0.32813,0.38281c0.147,0.049 0.30122,0.10797 0.44922,0.16797c1.493,0.633 2.89408,1.31497 4.20508,2.04297c0.174,0.126 0.33723,0.26406 0.49023,0.41406c0.1,0.044 0.20741,0.06641 0.31641,0.06641c0.269,0.002 0.53128,-0.09072 0.73828,-0.26172c0.211,-0.15 0.32206,-0.40316 0.28906,-0.66016c0.009,-0.189 -0.1043,-0.36359 -0.2793,-0.43359l-2.25976,-0.99414c-0.75,-0.318 -1.48155,-0.6828 -2.18555,-1.0918c0.494,-0.615 1.16011,-1.07055 1.91211,-1.31055c0.747,-0.241 1.43639,-0.63334 2.02539,-1.15234c0.085,-0.081 0.13186,-0.19355 0.13086,-0.31055c-0.004,-0.165 -0.08189,-0.31992 -0.21289,-0.41992c-0.156,-0.12 -0.34792,-0.18369 -0.54492,-0.17969zM28.86914,35.07227c-0.44,-0.016 -0.86931,0.14341 -1.19531,0.44141c-0.367,0.363 -0.52116,0.88858 -0.41016,1.39258c0.05,0.476 0.24087,0.92692 0.54688,1.29492c0.258,0.344 0.6618,0.54492 1.0918,0.54492c0.282,-0.004 0.55773,-0.0778 0.80273,-0.2168c0.537,-0.384 0.81933,-1.0325 0.73633,-1.6875c-0.027,-0.737 -0.20092,-1.23461 -0.54492,-1.47461c-0.304,-0.202 -0.66234,-0.30492 -1.02734,-0.29492zM20.39453,35.10938c-0.44,-0.017 -0.86931,0.1405 -1.19531,0.4375c-0.369,0.362 -0.52602,0.88758 -0.41602,1.39258c0.053,0.475 0.24387,0.92492 0.54688,1.29492c0.257,0.344 0.6618,0.54592 1.0918,0.54492c0.282,-0.005 0.55673,-0.0788 0.80273,-0.2168c0.491,-0.295 0.73242,-0.8525 0.73242,-1.6875c0.063,-0.548 -0.13516,-1.09461 -0.53516,-1.47461c-0.304,-0.201 -0.66334,-0.30202 -1.02734,-0.29102zM20.37305,36.2832c0.302,0 0.54688,0.24488 0.54688,0.54688c0,0.302 -0.24488,0.54688 -0.54687,0.54688c-0.302,0 -0.54687,-0.24488 -0.54687,-0.54687c0,-0.302 0.24488,-0.54687 0.54688,-0.54687zM28.69531,36.3457c0.301,-0.001 0.54688,0.24292 0.54688,0.54492c0,0.302 -0.24588,0.54688 -0.54688,0.54688c-0.302,0 -0.54492,-0.24488 -0.54492,-0.54687c0,-0.302 0.24292,-0.54492 0.54492,-0.54492zM23.4043,40.17969c-0.012,0.012 -0.01939,0.02597 -0.02539,0.04297v0.04492c0.075,0.209 0.1692,0.40861 0.2832,0.59961c0.103,0.183 0.23281,0.35205 0.38281,0.49805c0.135,0.141 0.29275,0.25775 0.46875,0.34375c0.173,0.073 0.35888,0.11314 0.54688,0.11914l0.02148,0.02344c0.151,0.001 0.30041,-0.02703 0.44141,-0.08203c0.135,-0.055 0.26286,-0.12594 0.38086,-0.21094c0.112,-0.09 0.2175,-0.18792 0.3125,-0.29492c0.09,-0.102 0.16928,-0.21113 0.23828,-0.32812c0.066,-0.103 0.12578,-0.21027 0.17578,-0.32227c0.039,-0.081 0.07075,-0.164 0.09375,-0.25v-0.04883c-0.011,-0.015 -0.02034,-0.03183 -0.02734,-0.04883c-0.142,0.219 -0.31844,0.41127 -0.52344,0.57227c-0.157,0.148 -0.34388,0.26198 -0.54687,0.33398c-0.205,0.071 -0.42167,0.10552 -0.63867,0.10352c-0.185,0.003 -0.36988,-0.02317 -0.54687,-0.07617c-0.152,-0.048 -0.29392,-0.12275 -0.41992,-0.21875c-0.128,-0.103 -0.24375,-0.21866 -0.34375,-0.34766c-0.105,-0.142 -0.19744,-0.29412 -0.27344,-0.45312zM21.95703,42.27539c-2.184,0.115 -3.45691,2.92003 -6.50391,0.33203c-0.83,4.969 5.24228,5.4618 7.73828,3.2168c1.726,-1.54 1.23963,-3.68583 -1.23437,-3.54883zM26.96094,42.27539c-2.08559,0.12863 -2.41109,2.10601 -0.79297,3.54883c2.496,2.244 8.56633,1.7522 7.73633,-3.2168c-3.047,2.588 -4.31891,-0.21803 -6.50391,-0.33203c-0.15462,-0.00856 -0.30041,-0.00858 -0.43945,0z"></path></g></g></svg>