<svg id="SvgjsSvg1045" width="288" height="288" xmlns="http://www.w3.org/2000/svg" version="1.1" xmlns:xlink="http://www.w3.org/1999/xlink" xmlns:svgjs="http://svgjs.com/svgjs"><defs id="SvgjsDefs1046"></defs><g id="SvgjsG1047"><svg xmlns="http://www.w3.org/2000/svg" viewBox="0 0 101 101" width="288" height="288"><path d="M83.9 17.1c-.9-.9-2.5-.9-3.4 0l-30 30-30-30c-.9-.9-2.5-.9-3.4 0s-.9 2.5 0 3.4l30 30-30 30c-.9.9-.9 2.5 0 3.4.5.5 1.1.7 1.7.7.6 0 1.2-.2 1.7-.7l30-30 30 30c.5.5 1.1.7 1.7.7.6 0 1.2-.2 1.7-.7.9-.9.9-2.5 0-3.4l-30-30 30-30c.9-.9.9-2.4 0-3.4z" fill="#00000" class="color000 svgShape"></path></svg></g></svg>