<svg id="SvgjsSvg1100" width="288" height="288" xmlns="http://www.w3.org/2000/svg" version="1.1" xmlns:xlink="http://www.w3.org/1999/xlink" xmlns:svgjs="http://svgjs.com/svgjs"><defs id="SvgjsDefs1101"></defs><g id="SvgjsG1102"><svg xmlns="http://www.w3.org/2000/svg" data-name="Layer 1" viewBox="0 0 512 512" width="288" height="288"><path d="M435.824,296.954a10,10,0,0,0-10,10v88.791a30.034,30.034,0,0,1-30,30H115.233a30.034,30.034,0,0,1-30-30V135.155a30.034,30.034,0,0,1,30-30h88.791a10,10,0,0,0,0-20H115.233a50.057,50.057,0,0,0-50,50V395.746a50.057,50.057,0,0,0,50,50H395.824a50.057,50.057,0,0,0,50-50V306.955A10,10,0,0,0,435.824,296.954Z" fill="#ffffff" class="color000 svgShape"></path><rect width="206.495" height="66.596" x="214.903" y="161.57" transform="rotate(-45 318.15 194.868)" fill="#ffffff" class="color000 svgShape"></rect><polygon points="197.775 315.246 249.815 300.83 212.191 263.206 197.775 315.246" fill="#ffffff" class="color000 svgShape"></polygon><path d="M427.721,73.566h0a25.027,25.027,0,0,0-35.355,0L381.76,84.172l47.091,47.091,10.606-10.606a25.029,25.029,0,0,0,0-35.355Z" fill="#ffffff" class="color000 svgShape"></path></svg></g></svg>